<svg width="203" height="203" viewBox="0 0 203 203" fill="none" xmlns="http://www.w3.org/2000/svg">
<mask id="path-1-inside-1_634_1814" fill="white">
<path d="M12.33 107.027C5.62772 107.443 -0.218506 102.332 0.170004 95.6277C0.738785 85.8132 2.73176 76.1114 6.10436 66.8313C10.8648 53.7324 18.2718 41.7542 27.8639 31.6432C37.456 21.5321 49.0277 13.5048 61.8578 8.06152C74.688 2.61821 88.5017 -0.124486 102.438 0.00433594C116.375 0.133158 130.135 3.13074 142.863 8.81029C155.59 14.4898 167.011 22.7297 176.415 33.0163C185.818 43.3029 193.003 55.416 197.52 68.6006C200.721 77.9415 202.534 87.6785 202.921 97.5019C203.186 104.212 197.246 109.214 190.553 108.675C183.859 108.135 178.97 102.247 178.453 95.5518C177.952 89.0709 176.633 82.6628 174.515 76.4828C171.08 66.457 165.617 57.246 158.466 49.4239C151.316 41.6018 142.631 35.3361 132.953 31.0172C123.275 26.6984 112.811 24.419 102.213 24.3211C91.6159 24.2231 81.1117 26.3087 71.3555 30.4479C61.5992 34.5871 52.7999 40.6911 45.5059 48.3797C38.2119 56.0683 32.5795 65.1767 28.9596 75.1373C26.7283 81.2772 25.2911 87.6597 24.6704 94.1303C24.0292 100.815 19.0323 106.612 12.33 107.027Z"/>
</mask>
<path d="M12.33 107.027C5.62772 107.443 -0.218506 102.332 0.170004 95.6277C0.738785 85.8132 2.73176 76.1114 6.10436 66.8313C10.8648 53.7324 18.2718 41.7542 27.8639 31.6432C37.456 21.5321 49.0277 13.5048 61.8578 8.06152C74.688 2.61821 88.5017 -0.124486 102.438 0.00433594C116.375 0.133158 130.135 3.13074 142.863 8.81029C155.59 14.4898 167.011 22.7297 176.415 33.0163C185.818 43.3029 193.003 55.416 197.52 68.6006C200.721 77.9415 202.534 87.6785 202.921 97.5019C203.186 104.212 197.246 109.214 190.553 108.675C183.859 108.135 178.97 102.247 178.453 95.5518C177.952 89.0709 176.633 82.6628 174.515 76.4828C171.08 66.457 165.617 57.246 158.466 49.4239C151.316 41.6018 142.631 35.3361 132.953 31.0172C123.275 26.6984 112.811 24.419 102.213 24.3211C91.6159 24.2231 81.1117 26.3087 71.3555 30.4479C61.5992 34.5871 52.7999 40.6911 45.5059 48.3797C38.2119 56.0683 32.5795 65.1767 28.9596 75.1373C26.7283 81.2772 25.2911 87.6597 24.6704 94.1303C24.0292 100.815 19.0323 106.612 12.33 107.027Z" fill="#EFE9E1" stroke="#EFE9E1" stroke-width="20" mask="url(#path-1-inside-1_634_1814)"/>
<mask id="path-2-inside-2_634_1814" fill="white">
<path d="M12.4016 107.023C5.65975 107.441 -0.22147 102.299 0.174076 95.556C1.19012 78.2348 6.63598 61.3894 16.0818 46.6732C25.5276 31.9569 38.5749 19.9906 53.8996 11.8536C59.8655 8.68586 66.9891 11.8917 69.4168 18.1951C71.8444 24.4986 68.6352 31.4961 62.7949 34.8898C52.276 41.0021 43.3013 49.5506 36.6673 59.8862C30.0332 70.2219 25.9986 81.9413 24.8221 94.0501C24.1689 100.773 19.1434 106.605 12.4016 107.023Z"/>
</mask>
<path d="M12.4016 107.023C5.65975 107.441 -0.22147 102.299 0.174076 95.556C1.19012 78.2348 6.63598 61.3894 16.0818 46.6732C25.5276 31.9569 38.5749 19.9906 53.8996 11.8536C59.8655 8.68586 66.9891 11.8917 69.4168 18.1951C71.8444 24.4986 68.6352 31.4961 62.7949 34.8898C52.276 41.0021 43.3013 49.5506 36.6673 59.8862C30.0332 70.2219 25.9986 81.9413 24.8221 94.0501C24.1689 100.773 19.1434 106.605 12.4016 107.023Z" fill="#4FC9DA" stroke="#4FC9DA" stroke-width="20" mask="url(#path-2-inside-2_634_1814)"/>
<path d="M177.889 55.1071C183.613 51.6304 191.146 53.4303 193.916 59.5284C199.206 71.1775 202.247 83.7242 202.877 96.5028C203.207 103.192 197.334 108.241 190.653 107.771C183.972 107.301 179.036 101.478 178.455 94.8059C177.78 87.0441 175.934 79.4279 172.981 72.2182C170.442 66.0205 172.164 58.5838 177.889 55.1071Z" fill="#B8D935"/>
<path d="M71.042 89.592C69.538 88.792 68.786 87.536 68.786 85.824C68.786 84.96 69.01 84.176 69.458 83.472C69.906 82.752 70.586 82.184 71.498 81.768C72.41 81.336 73.53 81.12 74.858 81.12C76.186 81.12 77.298 81.336 78.194 81.768C79.106 82.184 79.786 82.752 80.234 83.472C80.682 84.176 80.906 84.96 80.906 85.824C80.906 86.688 80.698 87.44 80.282 88.08C79.882 88.72 79.338 89.224 78.65 89.592C79.514 90.008 80.178 90.584 80.642 91.32C81.106 92.04 81.338 92.888 81.338 93.864C81.338 95 81.05 95.984 80.474 96.816C79.898 97.632 79.114 98.256 78.122 98.688C77.146 99.12 76.058 99.336 74.858 99.336C73.658 99.336 72.562 99.12 71.57 98.688C70.594 98.256 69.818 97.632 69.242 96.816C68.666 95.984 68.378 95 68.378 93.864C68.378 92.872 68.61 92.016 69.074 91.296C69.538 90.56 70.194 89.992 71.042 89.592ZM76.922 86.448C76.922 85.792 76.73 85.288 76.346 84.936C75.978 84.568 75.482 84.384 74.858 84.384C74.234 84.384 73.73 84.568 73.346 84.936C72.978 85.304 72.794 85.816 72.794 86.472C72.794 87.096 72.986 87.592 73.37 87.96C73.754 88.312 74.25 88.488 74.858 88.488C75.466 88.488 75.962 88.304 76.346 87.936C76.73 87.568 76.922 87.072 76.922 86.448ZM74.858 91.368C74.106 91.368 73.498 91.576 73.034 91.992C72.57 92.392 72.338 92.952 72.338 93.672C72.338 94.344 72.562 94.896 73.01 95.328C73.474 95.76 74.09 95.976 74.858 95.976C75.626 95.976 76.226 95.76 76.658 95.328C77.106 94.896 77.33 94.344 77.33 93.672C77.33 92.968 77.098 92.408 76.634 91.992C76.186 91.576 75.594 91.368 74.858 91.368ZM88.5485 95.208L85.8845 102.096H83.2685L84.6605 95.208H88.5485ZM90.7592 86.424C90.8232 84.712 91.3832 83.392 92.4392 82.464C93.4952 81.536 94.9272 81.072 96.7352 81.072C97.9352 81.072 98.9592 81.28 99.8072 81.696C100.671 82.112 101.319 82.68 101.751 83.4C102.199 84.12 102.423 84.928 102.423 85.824C102.423 86.88 102.159 87.744 101.631 88.416C101.103 89.072 100.487 89.52 99.7832 89.76V89.856C100.695 90.16 101.415 90.664 101.943 91.368C102.471 92.072 102.735 92.976 102.735 94.08C102.735 95.072 102.503 95.952 102.039 96.72C101.591 97.472 100.927 98.064 100.047 98.496C99.1832 98.928 98.1512 99.144 96.9512 99.144C95.0312 99.144 93.4952 98.672 92.3432 97.728C91.2072 96.784 90.6072 95.36 90.5432 93.456H94.5272C94.5432 94.16 94.7432 94.72 95.1272 95.136C95.5112 95.536 96.0712 95.736 96.8072 95.736C97.4312 95.736 97.9112 95.56 98.2472 95.208C98.5992 94.84 98.7752 94.36 98.7752 93.768C98.7752 93 98.5272 92.448 98.0312 92.112C97.5512 91.76 96.7752 91.584 95.7032 91.584H94.9352V88.248H95.7032C96.5192 88.248 97.1752 88.112 97.6712 87.84C98.1832 87.552 98.4392 87.048 98.4392 86.328C98.4392 85.752 98.2792 85.304 97.9592 84.984C97.6392 84.664 97.1992 84.504 96.6392 84.504C96.0312 84.504 95.5752 84.688 95.2712 85.056C94.9832 85.424 94.8152 85.88 94.7672 86.424H90.7592ZM105.242 95.88V92.568L112.826 81.72H117.41V92.328H119.378V95.88H117.41V99H113.306V95.88H105.242ZM113.594 86.232L109.562 92.328H113.594V86.232ZM133.725 85.056H126.237V88.368C126.557 88.016 127.005 87.728 127.581 87.504C128.157 87.28 128.781 87.168 129.453 87.168C130.653 87.168 131.645 87.44 132.429 87.984C133.229 88.528 133.813 89.232 134.181 90.096C134.549 90.96 134.733 91.896 134.733 92.904C134.733 94.776 134.205 96.264 133.149 97.368C132.093 98.456 130.605 99 128.685 99C127.405 99 126.293 98.784 125.349 98.352C124.405 97.904 123.677 97.288 123.165 96.504C122.653 95.72 122.373 94.816 122.325 93.792H126.333C126.429 94.288 126.661 94.704 127.029 95.04C127.397 95.36 127.901 95.52 128.541 95.52C129.293 95.52 129.853 95.28 130.221 94.8C130.589 94.32 130.773 93.68 130.773 92.88C130.773 92.096 130.581 91.496 130.197 91.08C129.813 90.664 129.253 90.456 128.517 90.456C127.973 90.456 127.525 90.592 127.173 90.864C126.821 91.12 126.589 91.464 126.477 91.896H122.517V81.456H133.725V85.056Z" fill="#3F4254"/>
<path d="M62.6298 60.66V61.776H60.4098V69H59.0418V61.776H56.8098V60.66H62.6298ZM66.8832 69.108C66.2592 69.108 65.6952 68.968 65.1912 68.688C64.6872 68.4 64.2912 68 64.0032 67.488C63.7152 66.968 63.5712 66.368 63.5712 65.688C63.5712 65.016 63.7192 64.42 64.0152 63.9C64.3112 63.38 64.7152 62.98 65.2272 62.7C65.7392 62.42 66.3112 62.28 66.9432 62.28C67.5752 62.28 68.1472 62.42 68.6592 62.7C69.1712 62.98 69.5752 63.38 69.8712 63.9C70.1672 64.42 70.3152 65.016 70.3152 65.688C70.3152 66.36 70.1632 66.956 69.8592 67.476C69.5552 67.996 69.1392 68.4 68.6112 68.688C68.0912 68.968 67.5152 69.108 66.8832 69.108ZM66.8832 67.92C67.2352 67.92 67.5632 67.836 67.8672 67.668C68.1792 67.5 68.4312 67.248 68.6232 66.912C68.8152 66.576 68.9112 66.168 68.9112 65.688C68.9112 65.208 68.8192 64.804 68.6352 64.476C68.4512 64.14 68.2072 63.888 67.9032 63.72C67.5992 63.552 67.2712 63.468 66.9192 63.468C66.5672 63.468 66.2392 63.552 65.9352 63.72C65.6392 63.888 65.4032 64.14 65.2272 64.476C65.0512 64.804 64.9632 65.208 64.9632 65.688C64.9632 66.4 65.1432 66.952 65.5032 67.344C65.8712 67.728 66.3312 67.92 66.8832 67.92ZM73.2636 63.504V67.164C73.2636 67.412 73.3196 67.592 73.4316 67.704C73.5516 67.808 73.7516 67.86 74.0316 67.86H74.8716V69H73.7916C73.1756 69 72.7036 68.856 72.3756 68.568C72.0476 68.28 71.8836 67.812 71.8836 67.164V63.504H71.1036V62.388H71.8836V60.744H73.2636V62.388H74.8716V63.504H73.2636ZM75.6764 65.664C75.6764 65 75.8124 64.412 76.0844 63.9C76.3644 63.388 76.7404 62.992 77.2124 62.712C77.6924 62.424 78.2204 62.28 78.7964 62.28C79.3164 62.28 79.7684 62.384 80.1524 62.592C80.5444 62.792 80.8564 63.044 81.0884 63.348V62.388H82.4684V69H81.0884V68.016C80.8564 68.328 80.5404 68.588 80.1404 68.796C79.7404 69.004 79.2844 69.108 78.7724 69.108C78.2044 69.108 77.6844 68.964 77.2124 68.676C76.7404 68.38 76.3644 67.972 76.0844 67.452C75.8124 66.924 75.6764 66.328 75.6764 65.664ZM81.0884 65.688C81.0884 65.232 80.9924 64.836 80.8004 64.5C80.6164 64.164 80.3724 63.908 80.0684 63.732C79.7644 63.556 79.4364 63.468 79.0844 63.468C78.7324 63.468 78.4044 63.556 78.1004 63.732C77.7964 63.9 77.5484 64.152 77.3564 64.488C77.1724 64.816 77.0804 65.208 77.0804 65.664C77.0804 66.12 77.1724 66.52 77.3564 66.864C77.5484 67.208 77.7964 67.472 78.1004 67.656C78.4124 67.832 78.7404 67.92 79.0844 67.92C79.4364 67.92 79.7644 67.832 80.0684 67.656C80.3724 67.48 80.6164 67.224 80.8004 66.888C80.9924 66.544 81.0884 66.144 81.0884 65.688ZM85.6332 60.12V69H84.2652V60.12H85.6332ZM99.3305 60.66V69H97.9625V63.288L95.4185 69H94.4705L91.9145 63.288V69H90.5465V60.66H92.0225L94.9505 67.2L97.8665 60.66H99.3305ZM107.189 65.532C107.189 65.78 107.173 66.004 107.141 66.204H102.089C102.129 66.732 102.325 67.156 102.677 67.476C103.029 67.796 103.461 67.956 103.973 67.956C104.709 67.956 105.229 67.648 105.533 67.032H107.009C106.809 67.64 106.445 68.14 105.917 68.532C105.397 68.916 104.749 69.108 103.973 69.108C103.341 69.108 102.773 68.968 102.269 68.688C101.773 68.4 101.381 68 101.093 67.488C100.813 66.968 100.673 66.368 100.673 65.688C100.673 65.008 100.809 64.412 101.081 63.9C101.361 63.38 101.749 62.98 102.245 62.7C102.749 62.42 103.325 62.28 103.973 62.28C104.597 62.28 105.153 62.416 105.641 62.688C106.129 62.96 106.509 63.344 106.781 63.84C107.053 64.328 107.189 64.892 107.189 65.532ZM105.761 65.1C105.753 64.596 105.573 64.192 105.221 63.888C104.869 63.584 104.433 63.432 103.913 63.432C103.441 63.432 103.037 63.584 102.701 63.888C102.365 64.184 102.165 64.588 102.101 65.1H105.761ZM116.539 62.28C117.059 62.28 117.523 62.388 117.931 62.604C118.347 62.82 118.671 63.14 118.903 63.564C119.143 63.988 119.263 64.5 119.263 65.1V69H117.907V65.304C117.907 64.712 117.759 64.26 117.463 63.948C117.167 63.628 116.763 63.468 116.251 63.468C115.739 63.468 115.331 63.628 115.027 63.948C114.731 64.26 114.583 64.712 114.583 65.304V69H113.227V65.304C113.227 64.712 113.079 64.26 112.783 63.948C112.487 63.628 112.083 63.468 111.571 63.468C111.059 63.468 110.651 63.628 110.347 63.948C110.051 64.26 109.903 64.712 109.903 65.304V69H108.535V62.388H109.903V63.144C110.127 62.872 110.411 62.66 110.755 62.508C111.099 62.356 111.467 62.28 111.859 62.28C112.387 62.28 112.859 62.392 113.275 62.616C113.691 62.84 114.011 63.164 114.235 63.588C114.435 63.188 114.747 62.872 115.171 62.64C115.595 62.4 116.051 62.28 116.539 62.28ZM122.372 63.372C122.604 63.052 122.92 62.792 123.32 62.592C123.728 62.384 124.18 62.28 124.676 62.28C125.26 62.28 125.788 62.42 126.26 62.7C126.732 62.98 127.104 63.38 127.376 63.9C127.648 64.412 127.784 65 127.784 65.664C127.784 66.328 127.648 66.924 127.376 67.452C127.104 67.972 126.728 68.38 126.248 68.676C125.776 68.964 125.252 69.108 124.676 69.108C124.164 69.108 123.708 69.008 123.308 68.808C122.916 68.608 122.604 68.352 122.372 68.04V69H121.004V60.12H122.372V63.372ZM126.392 65.664C126.392 65.208 126.296 64.816 126.104 64.488C125.92 64.152 125.672 63.9 125.36 63.732C125.056 63.556 124.728 63.468 124.376 63.468C124.032 63.468 123.704 63.556 123.392 63.732C123.088 63.908 122.84 64.164 122.648 64.5C122.464 64.836 122.372 65.232 122.372 65.688C122.372 66.144 122.464 66.544 122.648 66.888C122.84 67.224 123.088 67.48 123.392 67.656C123.704 67.832 124.032 67.92 124.376 67.92C124.728 67.92 125.056 67.832 125.36 67.656C125.672 67.472 125.92 67.208 126.104 66.864C126.296 66.52 126.392 66.12 126.392 65.664ZM135.196 65.532C135.196 65.78 135.18 66.004 135.148 66.204H130.096C130.136 66.732 130.332 67.156 130.684 67.476C131.036 67.796 131.468 67.956 131.98 67.956C132.716 67.956 133.236 67.648 133.54 67.032H135.016C134.816 67.64 134.452 68.14 133.924 68.532C133.404 68.916 132.756 69.108 131.98 69.108C131.348 69.108 130.78 68.968 130.276 68.688C129.78 68.4 129.388 68 129.1 67.488C128.82 66.968 128.68 66.368 128.68 65.688C128.68 65.008 128.816 64.412 129.088 63.9C129.368 63.38 129.756 62.98 130.252 62.7C130.756 62.42 131.332 62.28 131.98 62.28C132.604 62.28 133.16 62.416 133.648 62.688C134.136 62.96 134.516 63.344 134.788 63.84C135.06 64.328 135.196 64.892 135.196 65.532ZM133.768 65.1C133.76 64.596 133.58 64.192 133.228 63.888C132.876 63.584 132.44 63.432 131.92 63.432C131.448 63.432 131.044 63.584 130.708 63.888C130.372 64.184 130.172 64.588 130.108 65.1H133.768ZM137.911 63.348C138.111 63.012 138.375 62.752 138.703 62.568C139.039 62.376 139.435 62.28 139.891 62.28V63.696H139.543C139.007 63.696 138.599 63.832 138.319 64.104C138.047 64.376 137.911 64.848 137.911 65.52V69H136.543V62.388H137.911V63.348ZM143.548 69.108C143.028 69.108 142.56 69.016 142.144 68.832C141.736 68.64 141.412 68.384 141.172 68.064C140.932 67.736 140.804 67.372 140.788 66.972H142.204C142.228 67.252 142.36 67.488 142.6 67.68C142.848 67.864 143.156 67.956 143.524 67.956C143.908 67.956 144.204 67.884 144.412 67.74C144.628 67.588 144.736 67.396 144.736 67.164C144.736 66.916 144.616 66.732 144.376 66.612C144.144 66.492 143.772 66.36 143.26 66.216C142.764 66.08 142.36 65.948 142.048 65.82C141.736 65.692 141.464 65.496 141.232 65.232C141.008 64.968 140.896 64.62 140.896 64.188C140.896 63.836 141 63.516 141.208 63.228C141.416 62.932 141.712 62.7 142.096 62.532C142.488 62.364 142.936 62.28 143.44 62.28C144.192 62.28 144.796 62.472 145.252 62.856C145.716 63.232 145.964 63.748 145.996 64.404H144.628C144.604 64.108 144.484 63.872 144.268 63.696C144.052 63.52 143.76 63.432 143.392 63.432C143.032 63.432 142.756 63.5 142.564 63.636C142.372 63.772 142.276 63.952 142.276 64.176C142.276 64.352 142.34 64.5 142.468 64.62C142.596 64.74 142.752 64.836 142.936 64.908C143.12 64.972 143.392 65.056 143.752 65.16C144.232 65.288 144.624 65.42 144.928 65.556C145.24 65.684 145.508 65.876 145.732 66.132C145.956 66.388 146.072 66.728 146.08 67.152C146.08 67.528 145.976 67.864 145.768 68.16C145.56 68.456 145.264 68.688 144.88 68.856C144.504 69.024 144.06 69.108 143.548 69.108Z" fill="#B5B5C3"/>
</svg>
